<svg width="512" height="512" viewBox="0 0 512 512" fill="none" xmlns="http://www.w3.org/2000/svg">
  <rect width="512" height="512" rx="96" fill="#FFF8F1"/>
  <circle cx="122" cy="130" r="66" fill="#FFDAB9"/>
  <circle cx="402" cy="116" r="50" fill="#D7EEE8"/>
  <circle cx="396" cy="390" r="78" fill="#DDE7FB"/>
  <rect x="56" y="250" width="92" height="14" rx="7" fill="#7C8A92"/>
  <rect x="364" y="250" width="92" height="14" rx="7" fill="#7C8A92"/>
  <path d="M148 257C148 221.654 176.654 193 212 193C247.346 193 276 221.654 276 257" stroke="#45525A" stroke-width="16" stroke-linecap="round"/>
  <path d="M212 257C212 221.654 240.654 193 276 193C311.346 193 340 221.654 340 257" stroke="#45525A" stroke-width="16" stroke-linecap="round"/>
  <path d="M276 257C276 221.654 304.654 193 340 193C375.346 193 404 221.654 404 257" stroke="#45525A" stroke-width="16" stroke-linecap="round"/>
  <path d="M146 257H404" stroke="#45525A" stroke-width="8" stroke-linecap="round" opacity="0.2"/>
  <path d="M174 331C204 307 246 294 292 294C334 294 373 305 402 327" stroke="#2E7C7B" stroke-width="12" stroke-linecap="round"/>
  <path d="M124 89L137 63L150 89" stroke="#E2752D" stroke-width="10" stroke-linecap="round" stroke-linejoin="round"/>
  <path d="M385 417L398 392L411 417" stroke="#2E7C7B" stroke-width="10" stroke-linecap="round" stroke-linejoin="round"/>
</svg>
