<svg width="512" height="512" viewBox="0 0 512 512" fill="none" xmlns="http://www.w3.org/2000/svg">
  <rect width="512" height="512" rx="96" fill="#FFF7EF"/>
  <circle cx="122" cy="126" r="62" fill="#D6EEE7"/>
  <circle cx="398" cy="118" r="54" fill="#FFE2C8"/>
  <circle cx="392" cy="392" r="78" fill="#DDE6FB"/>
  <rect x="124" y="118" width="264" height="276" rx="34" fill="#25313C"/>
  <rect x="150" y="144" width="212" height="224" rx="22" fill="#30404D"/>
  <path d="M148 173H124" stroke="#7C8A92" stroke-width="10" stroke-linecap="round"/>
  <path d="M148 211H124" stroke="#7C8A92" stroke-width="10" stroke-linecap="round"/>
  <path d="M148 249H124" stroke="#7C8A92" stroke-width="10" stroke-linecap="round"/>
  <path d="M148 287H124" stroke="#7C8A92" stroke-width="10" stroke-linecap="round"/>
  <path d="M148 325H124" stroke="#7C8A92" stroke-width="10" stroke-linecap="round"/>
  <path d="M388 173H412" stroke="#7C8A92" stroke-width="10" stroke-linecap="round"/>
  <path d="M388 211H412" stroke="#7C8A92" stroke-width="10" stroke-linecap="round"/>
  <path d="M388 249H412" stroke="#7C8A92" stroke-width="10" stroke-linecap="round"/>
  <path d="M388 287H412" stroke="#7C8A92" stroke-width="10" stroke-linecap="round"/>
  <path d="M388 325H412" stroke="#7C8A92" stroke-width="10" stroke-linecap="round"/>
  <path d="M190 302V202L292 252L190 302Z" fill="#FFF2E3" stroke="#E2752D" stroke-width="10" stroke-linejoin="round"/>
  <path d="M182 228H162" stroke="#DDE6FB" stroke-width="10" stroke-linecap="round"/>
  <path d="M172 218V238" stroke="#DDE6FB" stroke-width="10" stroke-linecap="round"/>
  <path d="M182 278H162" stroke="#DDE6FB" stroke-width="10" stroke-linecap="round"/>
  <path d="M300 252H340" stroke="#DDE6FB" stroke-width="10" stroke-linecap="round"/>
  <circle cx="326" cy="192" r="16" fill="#2E7C7B"/>
  <circle cx="326" cy="310" r="16" fill="#E2752D"/>
  <path d="M114 180L127 153L140 180" stroke="#2E7C7B" stroke-width="10" stroke-linecap="round" stroke-linejoin="round"/>
  <path d="M380 419L394 392L408 419" stroke="#E2752D" stroke-width="10" stroke-linecap="round" stroke-linejoin="round"/>
</svg>
