<svg width="512" height="512" viewBox="0 0 512 512" fill="none" xmlns="http://www.w3.org/2000/svg">
  <rect width="512" height="512" rx="96" fill="#FFF7EE"/>
  <circle cx="125" cy="125" r="68" fill="#FFE0C2"/>
  <circle cx="398" cy="130" r="52" fill="#CDEAE4"/>
  <circle cx="396" cy="386" r="72" fill="#F8D5B5"/>
  <rect x="70" y="237" width="96" height="14" rx="7" fill="#7C8A92"/>
  <rect x="346" y="237" width="96" height="14" rx="7" fill="#7C8A92"/>
  <path d="M166 244H193L208 210L230 278L252 210L274 278L296 210L319 278L334 244H346" stroke="#454F57" stroke-width="16" stroke-linecap="round" stroke-linejoin="round"/>
  <rect x="177" y="182" width="158" height="124" rx="62" fill="#F2D0A8" stroke="#454F57" stroke-width="10"/>
  <rect x="197" y="182" width="22" height="124" rx="11" fill="#E2752D"/>
  <rect x="236" y="182" width="18" height="124" rx="9" fill="#6E4A2F"/>
  <rect x="271" y="182" width="22" height="124" rx="11" fill="#2E7C7B"/>
  <rect x="310" y="182" width="18" height="124" rx="9" fill="#6E4A2F"/>
  <path d="M118 154L133 122L148 154" stroke="#E2752D" stroke-width="12" stroke-linecap="round" stroke-linejoin="round"/>
  <path d="M385 89L398 66L411 89" stroke="#2E7C7B" stroke-width="10" stroke-linecap="round" stroke-linejoin="round"/>
  <path d="M385 423L398 399L411 423" stroke="#E2752D" stroke-width="10" stroke-linecap="round" stroke-linejoin="round"/>
</svg>
