<svg width="512" height="512" viewBox="0 0 512 512" fill="none" xmlns="http://www.w3.org/2000/svg">
  <rect width="512" height="512" rx="96" fill="#FDF7F0"/>
  <circle cx="126" cy="124" r="64" fill="#FFE1C8"/>
  <circle cx="394" cy="122" r="54" fill="#D7EEE8"/>
  <circle cx="396" cy="392" r="78" fill="#F7DDC3"/>
  <rect x="179" y="126" width="154" height="184" rx="28" fill="#2E3236"/>
  <rect x="194" y="144" width="124" height="24" rx="12" fill="#4D545B"/>
  <rect x="208" y="310" width="14" height="110" rx="7" fill="#8A979E"/>
  <rect x="249" y="310" width="14" height="126" rx="7" fill="#8A979E"/>
  <rect x="290" y="310" width="14" height="110" rx="7" fill="#8A979E"/>
  <circle cx="256" cy="228" r="86" stroke="#46525A" stroke-width="10" stroke-dasharray="10 12"/>
  <path d="M220 261L252 228" stroke="#2E7C7B" stroke-width="12" stroke-linecap="round"/>
  <path d="M252 228H292" stroke="#46525A" stroke-width="12" stroke-linecap="round"/>
  <path d="M256 170V286" stroke="#46525A" stroke-width="12" stroke-linecap="round"/>
  <path d="M276 278L297 299" stroke="#E2752D" stroke-width="12" stroke-linecap="round"/>
  <path d="M286 296L300 300L296 286" stroke="#E2752D" stroke-width="10" stroke-linecap="round" stroke-linejoin="round"/>
  <path d="M126 182L141 152L156 182" stroke="#E2752D" stroke-width="10" stroke-linecap="round" stroke-linejoin="round"/>
  <path d="M381 90L394 66L407 90" stroke="#2E7C7B" stroke-width="10" stroke-linecap="round" stroke-linejoin="round"/>
</svg>
